<?xml version="1.0" encoding="iso-8859-1"?>
<!-- Generator: Adobe Illustrator 19.0.0, SVG Export Plug-In . SVG Version: 6.00 Build 0)  -->
<svg version="1.1" id="Layer_1" xmlns="http://www.w3.org/2000/svg" xmlns:xlink="http://www.w3.org/1999/xlink" x="0px" y="0px"
	 viewBox="0 0 512 512" style="enable-background:new 0 0 512 512;" xml:space="preserve">
<path style="fill:#FFDC7B;" d="M374.084,326.551c-5.089-1.567-11.055-3.009-17.826-4.336c0.073-0.512,0.125-1.045,0.136-1.578
	c0.167-7.356-5.663-13.437-13.019-13.605c-28.985-0.637-37.951-63.592-42.256-93.842c-2.57-18.056-3.636-25.527-8.014-30.595
	c-8.976-10.397-21.598-16.091-23.009-16.708c-0.031-0.021-0.084-0.031-0.125-0.052c-3.594-3.532-8.526-5.705-13.97-5.705
	c-5.444,0-10.376,2.173-13.97,5.705c-0.042,0.021-0.094,0.031-0.125,0.052c-1.411,0.616-14.033,6.311-23.009,16.708
	c-4.378,5.068-5.444,12.539-8.014,30.595c-4.305,30.25-13.27,93.205-42.256,93.842c-7.356,0.167-13.187,6.249-13.019,13.605
	c0.01,0.533,0.063,1.066,0.136,1.578c-6.771,1.327-12.737,2.769-17.826,4.336c-7.168,2.205-28.975,8.923-28.797,27.031
	c0.23,23.103,33.646,30.302,62.736,34.001c14.712,1.87,29.268,2.8,39.299,3.26v19.393c0,7.356,5.956,13.312,13.312,13.312
	c7.346,0,13.312-5.956,13.312-13.312V377.96c0-7.272-5.851-13.208-13.134-13.312c-0.199,0-20.793-0.313-42.872-2.706
	c-22.967-2.487-34.92-5.799-41.002-8.234c7.199-2.811,22.309-6.886,53.154-10.041c27.512-2.811,53.332-3.396,53.593-3.406
	c0.293,0,4.389-0.01,8.485-0.01c4.096,0,8.192,0.01,8.485,0.01c0.261,0.01,26.081,0.596,53.593,3.406
	c30.845,3.156,45.955,7.231,53.154,10.041c-6.081,2.435-18.035,5.747-41.002,8.234c-22.079,2.393-42.674,2.706-42.872,2.706
	c-7.283,0.104-13.134,6.029-13.134,13.312v32.277c0,7.356,5.966,13.312,13.312,13.312c7.356,0,13.312-5.956,13.312-13.312v-19.393
	c10.031-0.46,24.586-1.39,39.299-3.26c29.09-3.699,62.506-10.898,62.736-34.001C403.059,335.475,381.252,328.756,374.084,326.551z
	 M236.032,310.021c0,2.236-1.745,4.075-3.971,4.18c-7.231,0.334-16.551,0.878-26.76,1.703c6.531-7.576,12.131-17.533,16.771-29.884
	c7.419-19.78,11.264-42.35,13.96-60.688V310.021z M279.939,314.201c-2.226-0.104-3.971-1.943-3.971-4.18v-84.689
	c2.696,18.338,6.541,40.908,13.96,60.688c4.639,12.351,10.24,22.309,16.771,29.884C296.49,315.079,287.169,314.535,279.939,314.201z
	"/>
<path style="fill:#F0AE59;" d="M242.03,165.836c-0.042,0.021-0.094,0.031-0.125,0.052c-1.411,0.616-14.033,6.311-23.009,16.708
	c-4.378,5.068-5.444,12.539-8.014,30.595c-4.305,30.25-13.27,93.205-42.256,93.842c-7.356,0.167-13.187,6.249-13.019,13.605
	c0.01,0.533,0.063,1.066,0.136,1.578c-6.771,1.327-12.737,2.769-17.826,4.336c-7.168,2.205-28.975,8.923-28.797,27.031
	c0.23,23.103,33.646,30.302,62.736,34.001c14.712,1.87,29.268,2.8,39.299,3.26v19.393c0,7.356,5.956,13.312,13.312,13.312
	c7.346,0,13.312-5.956,13.312-13.312v-32.277c0-7.272-5.851-13.208-13.134-13.312c-0.199,0-20.793-0.313-42.872-2.706
	c-22.967-2.487-34.92-5.799-41.002-8.234c7.199-2.811,22.309-6.886,53.154-10.041c27.512-2.811,53.332-3.396,53.593-3.406
	c0.293,0,4.389-0.01,8.485-0.01v-180.12C250.556,160.131,245.624,162.304,242.03,165.836z M236.032,310.021
	c0,2.236-1.745,4.075-3.971,4.18c-7.231,0.334-16.551,0.878-26.76,1.703c6.531-7.576,12.131-17.533,16.771-29.884
	c7.419-19.78,11.264-42.35,13.96-60.688V310.021z"/>
<circle style="fill:#FFA163;" cx="256" cy="114.333" r="24.898"/>
<path d="M256,44.929c4.328,0,7.837-3.509,7.837-7.837V7.837C263.837,3.509,260.328,0,256,0s-7.837,3.509-7.837,7.837v29.255
	C248.163,41.42,251.672,44.929,256,44.929z"/>
<path d="M256,467.071c-4.328,0-7.837,3.509-7.837,7.837v29.255c0,4.328,3.509,7.837,7.837,7.837s7.837-3.509,7.837-7.837v-29.255
	C263.837,470.58,260.328,467.071,256,467.071z"/>
<path d="M139.759,70.337c1.451,2.514,4.086,3.919,6.794,3.919c1.329,0,2.677-0.339,3.911-1.051
	c3.748-2.164,5.032-6.957,2.868-10.705l-14.628-25.336c-2.164-3.749-6.957-5.033-10.705-2.868
	c-3.748,2.164-5.032,6.957-2.868,10.705L139.759,70.337z"/>
<path d="M372.241,441.663c-2.164-3.749-6.957-5.032-10.705-2.868s-5.032,6.957-2.868,10.705l14.628,25.336
	c1.451,2.514,4.086,3.919,6.794,3.919c1.329,0,2.677-0.339,3.911-1.051c3.748-2.164,5.032-6.957,2.868-10.705L372.241,441.663z"/>
<path d="M70.337,139.759l-25.336-14.628c-3.748-2.166-8.541-0.881-10.705,2.868c-2.164,3.748-0.88,8.541,2.868,10.705l25.336,14.628
	c1.234,0.713,2.582,1.051,3.911,1.051c2.708,0,5.343-1.405,6.794-3.919C75.371,146.716,74.086,141.923,70.337,139.759z"/>
<path d="M474.834,373.295l-25.336-14.628c-3.748-2.166-8.541-0.881-10.705,2.868c-2.164,3.748-0.88,8.541,2.868,10.705
	l25.336,14.628c1.234,0.713,2.582,1.051,3.911,1.051c2.708,0,5.343-1.405,6.794-3.919
	C479.867,380.252,478.583,375.459,474.834,373.295z"/>
<path d="M44.929,256c0-4.328-3.509-7.837-7.837-7.837H7.837C3.509,248.163,0,251.672,0,256s3.509,7.837,7.837,7.837h29.255
	C41.42,263.837,44.929,260.328,44.929,256z"/>
<path d="M504.163,248.163h-29.255c-4.328,0-7.837,3.509-7.837,7.837s3.509,7.837,7.837,7.837h29.255
	c4.328,0,7.837-3.509,7.837-7.837S508.491,248.163,504.163,248.163z"/>
<path d="M62.501,358.667l-25.336,14.628c-3.748,2.164-5.032,6.957-2.868,10.705c1.451,2.514,4.086,3.919,6.794,3.919
	c1.329,0,2.677-0.339,3.911-1.051l25.336-14.628c3.748-2.164,5.032-6.957,2.868-10.705
	C71.042,357.787,66.249,356.502,62.501,358.667z"/>
<path d="M445.587,154.384c1.329,0,2.677-0.339,3.911-1.051l25.336-14.628c3.748-2.164,5.032-6.957,2.868-10.705
	c-2.164-3.749-6.956-5.033-10.705-2.868l-25.336,14.628c-3.748,2.164-5.032,6.957-2.868,10.705
	C440.246,152.978,442.88,154.384,445.587,154.384z"/>
<path d="M150.464,438.793c-3.749-2.165-8.541-0.881-10.705,2.868l-14.628,25.336c-2.164,3.748-0.88,8.541,2.868,10.705
	c1.234,0.713,2.582,1.051,3.911,1.051c2.708,0,5.343-1.405,6.794-3.919l14.628-25.336
	C155.496,445.751,154.212,440.958,150.464,438.793z"/>
<path d="M361.536,73.207c1.234,0.713,2.582,1.051,3.911,1.051c2.708,0,5.343-1.405,6.794-3.919l14.628-25.336
	c2.164-3.748,0.88-8.541-2.868-10.705c-3.749-2.166-8.542-0.881-10.705,2.868l-14.628,25.336
	C356.503,66.249,357.788,71.042,361.536,73.207z"/>
<path d="M169.141,116.784c3.67-2.295,4.785-7.13,2.49-10.8c-2.295-3.67-7.128-4.786-10.8-2.49
	c-25.377,15.869-46.584,38.011-61.325,64.034C84.297,194.375,76.259,224.968,76.259,256c0,4.328,3.509,7.837,7.837,7.837
	s7.837-3.509,7.837-7.837C91.932,199.057,120.795,147.014,169.141,116.784z"/>
<path d="M349.261,102.317c-3.699-2.249-8.52-1.073-10.768,2.624c-2.249,3.699-1.074,8.519,2.624,10.768
	c49.436,30.062,78.95,82.506,78.95,140.29c0,4.328,3.509,7.837,7.837,7.837s7.837-3.509,7.837-7.837
	c0-31.424-8.231-62.354-23.803-89.446C396.837,140.281,375.163,118.069,349.261,102.317z"/>
<path d="M256,147.065c18.05,0,32.735-14.685,32.735-32.735S274.05,81.597,256,81.597s-32.735,14.685-32.735,32.735
	S237.95,147.065,256,147.065z M256,97.271c9.407,0,17.061,7.654,17.061,17.061s-7.654,17.061-17.061,17.061
	s-17.061-7.654-17.061-17.061S246.593,97.271,256,97.271z"/>
<path d="M394.763,327.049c-3.648-2.328-8.493-1.259-10.822,2.391c-2.329,3.649-1.258,8.493,2.391,10.822
	c8.785,5.607,8.729,11.354,8.71,13.243c-0.17,17.237-31.977,23.27-55.885,26.308c-14.601,1.855-29.085,2.766-38.665,3.204
	c-4.185,0.191-7.479,3.639-7.479,7.828v19.397c0,3.02-2.457,5.475-5.475,5.475s-5.475-2.457-5.475-5.475v-32.278
	c0-2.979,2.423-5.435,5.393-5.475c0.206-0.002,21.253-0.327,43.618-2.752c19.303-2.094,33.794-5.037,43.071-8.749
	c2.986-1.195,4.94-4.093,4.926-7.31c-0.014-3.216-1.992-6.098-4.988-7.267c-4.585-1.789-12.01-4.018-23.84-6.208
	c7.002-2.559,12.33-8.73,13.654-16.235c0.049-0.214,0.092-0.432,0.123-0.653c0.007-0.051,0.01-0.098,0.017-0.149
	c0.027-0.201,0.048-0.402,0.069-0.604c0.066-0.6,0.114-1.184,0.127-1.75c0-0.001,0-0.002,0-0.003v-0.001l0,0
	c0-0.024-0.002-0.047-0.002-0.071c0.003-0.247-0.002-0.491-0.021-0.732c-0.18-11.293-9.268-20.554-20.656-20.805
	c-10.013-0.22-17.212-14.113-21.486-25.73c-1.495-4.063-6-6.142-10.061-4.648c-4.062,1.495-6.143,6-4.648,10.061
	c8.665,23.546,20.728,35.654,35.85,35.985c3.019,0.067,5.421,2.577,5.355,5.589c0,0.003-0.001,0.008-0.001,0.011
	c-0.068,2.95-2.52,5.35-5.468,5.35l-0.126-0.001c-11.878-0.261-21.782-5.158-30.274-14.962c-0.021-0.025-0.036-0.052-0.056-0.076
	c-5.917-6.853-11.087-16.11-15.367-27.514c-7.039-18.757-10.798-40.389-13.546-59.076c-0.598-4.063-4.236-6.983-8.325-6.676
	c-4.095,0.3-7.265,3.709-7.265,7.816v84.695c0,6.427,5.026,11.7,11.442,12.002c7.917,0.374,15.766,0.865,23.406,1.45
	c5.056,5.34,10.606,9.5,16.613,12.475c-0.241-0.025-0.475-0.05-0.719-0.075c-27.441-2.804-53.221-3.421-54.193-3.444
	c-0.007,0-0.015,0-0.022,0c-0.049,0.003-0.112-0.002-0.169-0.002c-1.861-0.014-16.45-0.014-17.144,0.002
	c-0.261,0.005-26.386,0.601-54.219,3.444c-0.242,0.025-0.476,0.05-0.717,0.075c6.006-2.975,11.554-7.135,16.611-12.475
	c7.639-0.585,15.489-1.076,23.405-1.45c6.417-0.303,11.443-5.575,11.443-12.002v-84.695c0-4.106-3.17-7.516-7.265-7.816
	c-4.098-0.303-7.727,2.612-8.325,6.676c-2.748,18.687-6.507,40.319-13.546,59.076c-4.28,11.404-9.449,20.661-15.367,27.514
	c-0.021,0.024-0.036,0.051-0.055,0.075c-8.492,9.805-18.395,14.701-30.261,14.962l-0.14,0.001c-2.95,0-5.403-2.402-5.468-5.355
	c-0.066-3.019,2.335-5.527,5.354-5.594c35.638-0.784,44.882-65.694,49.848-100.572c2.273-15.963,3.31-23.249,6.186-26.58
	c7.581-8.781,18.542-13.9,20.062-14.585c0.061-0.024,0.119-0.047,0.169-0.068c0.913-0.383,1.745-0.936,2.453-1.63
	c2.283-2.238,5.298-3.47,8.489-3.47s6.206,1.233,8.489,3.47c0.707,0.694,1.54,1.247,2.453,1.63c0.06,0.025,0.119,0.049,0.18,0.073
	c1.498,0.673,12.467,5.793,20.053,14.581c2.875,3.33,3.912,10.616,6.185,26.581c1.054,7.401,2.366,16.612,4.185,26.515
	c0.783,4.257,4.868,7.072,9.124,6.291c4.257-0.783,7.074-4.867,6.291-9.124c-1.763-9.593-3.049-18.631-4.083-25.895
	c-2.718-19.09-3.958-27.802-9.839-34.612c-8.898-10.308-20.565-16.343-24.692-18.27c-5.078-4.47-11.536-6.915-18.345-6.915
	c-6.81,0-13.267,2.444-18.346,6.915c-4.149,1.937-15.802,7.97-24.691,18.268c-5.881,6.811-7.121,15.523-9.84,34.62
	c-2.14,15.032-5.375,37.748-11.565,56.695c-4.489,13.74-12.143,30.17-23.11,30.411c-9.925,0.218-18.124,7.279-20.184,16.57
	c-4.659,1.034-8.899,2.137-12.656,3.294c-22.932,7.061-34.48,18.701-34.322,34.594c0.146,14.784,10.035,25.899,29.391,33.035
	c0.893,0.329,1.81,0.486,2.709,0.486c3.189,0,6.187-1.961,7.354-5.128c1.497-4.06-0.581-8.566-4.642-10.063
	c-19.027-7.014-19.112-15.647-19.14-18.484c-0.109-10.988,13.224-16.368,23.264-19.46c3.147-0.969,6.713-1.902,10.639-2.79
	c2.5,4.098,6.345,7.286,10.898,8.951c-11.829,2.19-19.254,4.419-23.839,6.208c-2.997,1.169-4.975,4.05-4.988,7.267
	c-0.014,3.217,1.939,6.115,4.926,7.31c9.277,3.711,23.768,6.655,43.072,8.749c22.383,2.428,43.413,2.75,43.609,2.752
	c2.979,0.042,5.401,2.497,5.401,5.475v32.278c0,3.02-2.457,5.475-5.475,5.475s-5.475-2.457-5.475-5.475v-19.396
	c0-4.189-3.295-7.637-7.479-7.828c-9.58-0.438-24.064-1.349-38.665-3.204c-4.297-0.55-8.217,2.493-8.761,6.787
	c-0.545,4.294,2.492,8.216,6.787,8.761c11.674,1.484,23.24,2.382,32.446,2.923v11.959c0,11.662,9.488,21.149,21.149,21.149
	c11.661,0,21.149-9.488,21.149-21.149v-32.278c0-11.501-9.357-20.988-20.862-21.148c-0.202-0.002-20.435-0.308-42.131-2.661
	c-1.814-0.196-3.554-0.398-5.224-0.604c5.088-0.718,10.837-1.42,17.324-2.084c27.128-2.771,52.712-3.361,52.929-3.366
	c0.936-0.013,15.764-0.011,16.66-0.001c0.004,0,0.008,0,0.011,0c0.587,0.014,26.012,0.613,52.96,3.367
	c6.488,0.662,12.237,1.366,17.324,2.082c-1.67,0.205-3.409,0.406-5.223,0.604c-21.689,2.352-41.929,2.659-42.132,2.661
	c-11.503,0.157-20.861,9.643-20.861,21.148v32.278c0,11.662,9.488,21.149,21.149,21.149s21.149-9.488,21.149-21.149v-11.959
	c9.208-0.54,20.773-1.439,32.446-2.923c20.725-2.633,69.259-8.801,69.583-41.702C410.788,346.21,408.081,335.547,394.763,327.049z
	 M283.805,306.543v-14.648c2.183,5.444,4.579,10.469,7.174,15.048C288.598,306.799,286.205,306.665,283.805,306.543z
	 M228.195,291.894v14.648c-2.399,0.123-4.793,0.257-7.174,0.399C223.617,302.362,226.012,297.338,228.195,291.894z"/>
<g>
</g>
<g>
</g>
<g>
</g>
<g>
</g>
<g>
</g>
<g>
</g>
<g>
</g>
<g>
</g>
<g>
</g>
<g>
</g>
<g>
</g>
<g>
</g>
<g>
</g>
<g>
</g>
<g>
</g>
</svg>
