<svg id="Layer_1" data-name="Layer 1" xmlns="http://www.w3.org/2000/svg" viewBox="0 0 128 128"><title>DREAM</title><path d="M83.148,24.2H45.505c-17.52,0-32.392,13.584-33.157,31.087A32.537,32.537,0,0,0,40.917,89.031a21.461,21.461,0,0,1,9.252,3.361l10.97,7.269a1.237,1.237,0,0,0,1.889-1.308l-1.272-5.548a2.949,2.949,0,0,1,.281-2.162,2.783,2.783,0,0,1,2.406-1.378H82.5c18.2,0,33.487-14.9,33.177-33.1A32.573,32.573,0,0,0,83.148,24.2ZM39.267,72.763h0L25.231,72.74a2,2,0,0,1-1.4-3.43l9.915-9.693-9.25-.1a2,2,0,0,1,.021-4h.021l14.083.149A2,2,0,0,1,40,59.1l-9.871,9.649,9.137.015a2,2,0,0,1,0,4Zm28.858-1.125h0L46.769,71.6a2,2,0,0,1-1.4-3.43L62.265,51.66l-16.6-.176a2,2,0,0,1,.021-4h.021l21.431.228a2,2,0,0,1,1.377,3.43L51.67,67.612l16.458.027a2,2,0,0,1,0,4Zm35.353-.95h0L75.94,70.645a2,2,0,0,1-1.4-3.43L97.326,44.942l-22.8-.242a2,2,0,0,1,.021-4h.021l27.635.293a2,2,0,0,1,1.377,3.43L80.842,66.652l22.639.037a2,2,0,0,1,0,4Z"/></svg>