<?xml version="1.0" encoding="utf-8"?>
<!-- Generator: Adobe Illustrator 16.0.0, SVG Export Plug-In . SVG Version: 6.00 Build 0)  -->
<!DOCTYPE svg PUBLIC "-//W3C//DTD SVG 1.1//EN" "http://www.w3.org/Graphics/SVG/1.1/DTD/svg11.dtd">
<svg version="1.1" id="Layer_1" xmlns="http://www.w3.org/2000/svg" xmlns:xlink="http://www.w3.org/1999/xlink" x="0px" y="0px"
	 width="128px" height="128px" viewBox="0 0 128 128" enable-background="new 0 0 128 128" xml:space="preserve">
<g>
	<g>
		<g>
			<g>
				<path fill="#282D33" d="M6.739,60.62h-4c0-0.68,0.012-1.358,0.034-2.033l3.998,0.128C6.75,59.348,6.739,59.983,6.739,60.62z"/>
			</g>
			<g>
				<path fill="#282D33" d="M7.016,55.01l-3.98-0.396c0.133-1.335,0.313-2.683,0.535-4.005l3.945,0.662
					C7.308,52.505,7.14,53.763,7.016,55.01z M8.265,47.576l-3.891-0.928c0.311-1.306,0.671-2.617,1.07-3.898l3.819,1.189
					C8.892,45.134,8.556,46.357,8.265,47.576z M10.508,40.374l-3.729-1.445c0.484-1.25,1.019-2.502,1.588-3.721l3.624,1.693
					C11.459,38.039,10.96,39.207,10.508,40.374z M13.702,33.538L10.2,31.604c0.649-1.175,1.346-2.343,2.071-3.472l3.365,2.163
					C14.959,31.349,14.308,32.44,13.702,33.538z M17.782,27.188l-3.214-2.381c0.795-1.073,1.64-2.138,2.512-3.165l3.049,2.589
					C19.314,25.191,18.524,26.186,17.782,27.188z M22.667,21.437l-2.872-2.784c0.931-0.959,1.908-1.903,2.905-2.805l2.683,2.967
					C24.45,19.658,23.536,20.541,22.667,21.437z M28.264,16.378l-2.481-3.138c1.052-0.832,2.145-1.639,3.247-2.398l2.27,3.294
					C30.269,14.846,29.248,15.6,28.264,16.378z M34.474,12.097l-2.048-3.436c1.149-0.686,2.337-1.342,3.531-1.952l1.819,3.563
					C36.661,10.842,35.549,11.457,34.474,12.097z M88.824,9.584c-1.129-0.538-2.293-1.046-3.46-1.51l1.479-3.717
					c1.249,0.497,2.494,1.041,3.702,1.617L88.824,9.584z M41.19,8.67l-1.58-3.675c1.231-0.529,2.495-1.024,3.756-1.47l1.335,3.771
					C43.522,7.713,42.341,8.175,41.19,8.67z M81.809,6.794c-1.189-0.385-2.411-0.736-3.629-1.043l0.979-3.879
					c1.303,0.329,2.608,0.704,3.883,1.116L81.809,6.794z M48.298,6.154l-1.083-3.851c1.287-0.362,2.606-0.687,3.921-0.965
					l0.828,3.913C50.735,5.512,49.501,5.816,48.298,6.154z M74.488,4.949c-1.227-0.225-2.483-0.413-3.735-0.559l0.463-3.974
					c1.338,0.156,2.683,0.357,3.995,0.598L74.488,4.949z M55.682,4.592l-0.57-3.959c1.32-0.19,2.67-0.34,4.012-0.445l0.312,3.988
					C58.18,4.274,56.917,4.415,55.682,4.592z M66.988,4.076C66,4.025,64.994,4,63.998,4l-0.791,0.005l-0.051-4
					c1.34-0.018,2.7,0.008,4.035,0.076L66.988,4.076z"/>
			</g>
			<g>
				<path fill="#282D33" d="M92.34,11.41c-0.553-0.312-1.11-0.614-1.674-0.908l1.854-3.545c0.601,0.314,1.193,0.636,1.783,0.968
					L92.34,11.41z"/>
			</g>
		</g>
		<g>
			<g>
				<path fill="#282D33" d="M125.227,62.651l-3.998-0.125c0.02-0.633,0.032-1.269,0.032-1.906h4
					C125.261,61.3,125.248,61.977,125.227,62.651z"/>
			</g>
			<g>
				<path fill="#282D33" d="M106.729,104.054l-2.777-2.879c0.87-0.839,1.721-1.712,2.53-2.597l2.951,2.701
					C108.568,102.225,107.658,103.158,106.729,104.054z M111.955,98.338l-3.115-2.51c0.748-0.928,1.481-1.901,2.18-2.893l3.27,2.305
					C113.541,96.301,112.756,97.343,111.955,98.338z M116.417,92.002l-3.408-2.092c0.627-1.022,1.229-2.081,1.791-3.146l3.539,1.865
					C117.736,89.771,117.09,90.906,116.417,92.002z M120.037,85.145l-3.65-1.637c0.49-1.094,0.952-2.222,1.371-3.35l3.75,1.393
					C121.058,82.761,120.563,83.97,120.037,85.145z M122.74,77.875l-3.832-1.148c0.346-1.154,0.657-2.332,0.926-3.5l3.898,0.896
					C123.444,75.375,123.11,76.638,122.74,77.875z M124.479,70.314l-3.949-0.641c0.193-1.19,0.35-2.399,0.466-3.593l3.98,0.385
					C124.853,67.745,124.685,69.039,124.479,70.314z"/>
			</g>
			<g>
				<path fill="#282D33" d="M102.853,107.486l-2.525-3.102c0.493-0.402,0.979-0.811,1.457-1.226l2.625,3.018
					C103.898,106.621,103.381,107.057,102.853,107.486z"/>
			</g>
		</g>
		<g>
			<path fill="#282D33" d="M63.998,89.741c-16.221,0-29.418-13.063-29.418-29.12c0-16.058,13.197-29.122,29.418-29.122
				c7.771,0,15.102,2.972,20.639,8.37l-2.791,2.864c-4.787-4.665-11.125-7.234-17.848-7.234c-14.016,0-25.418,11.27-25.418,25.122
				c0,13.852,11.402,25.12,25.418,25.12c14.015,0,25.417-11.269,25.417-25.12c0-1.553-0.142-3.097-0.421-4.587l3.932-0.736
				c0.324,1.732,0.489,3.523,0.489,5.323C93.415,76.678,80.219,89.741,63.998,89.741z"/>
		</g>
		<g>
			<g>
				<path fill="#282D33" d="M95.123,128h-4V89.01l0.592-0.586c7.496-7.432,11.624-17.304,11.624-27.798
					c0-21.707-17.861-39.367-39.816-39.367c-21.956,0-39.818,17.66-39.818,39.367c0,0.598,0.021,1.19,0.046,1.785l0.025,0.586
					L11.716,83.66h8.233v18.331c0,5.048,4.16,9.155,9.274,9.155H49.08V128h-4v-12.854H29.223c-7.319,0-13.274-5.901-13.274-13.155
					V87.66H4.748l14.983-25.667c-0.016-0.455-0.026-0.91-0.026-1.367c0-23.913,19.657-43.367,43.818-43.367
					c24.161,0,43.816,19.455,43.816,43.367c0,11.29-4.332,21.925-12.216,30.04V128z"/>
			</g>
		</g>
	</g>
	<g>
		<polygon fill="#282D33" points="40.23,76.9 37.417,74.057 63.23,48.521 73.454,58.636 115.586,16.96 118.398,19.804 
			73.454,64.263 63.23,54.147 		"/>
	</g>
	<g>
		<polygon fill="#282D33" points="118.992,39.589 114.992,39.589 114.992,20.382 95.554,20.382 95.554,16.382 118.992,16.382 		"/>
	</g>
</g>
</svg>
